# xmcd CD database file
#
# Track frame offsets:
#	150
#	14387
#	27038
#	42527
#	55860
#	68850
#	87787
#	104137
#	115258
#	130355
#	142449
#	155859
#	169390
#	181877
#	196609
#	211687
#
# Disc length: 3041 seconds
#
# Revision: 0
# Processed by: cddbd v1.5.1PL0 Copyright (c) Steve Scherf et al.
# Submitted via: CDex 1.51
#
DISCID=eb0bdf10
DTITLE=Bohém Ragtime Jazz Band - Strike Up The Band
DYEAR=2005
DGENRE=Jazz
TTITLE0=Strike Up The Band
TTITLE1=Az én babám
TTITLE2=Black Bottom Stomp
TTITLE3=Midnight Rag
TTITLE4=Mily mesés dolog a Niagara
TTITLE5=Gee Baby, Ain't Good To You ?
TTITLE6=Pineapple Rag
TTITLE7=Georgia Swing
TTITLE8=Engem a rumba döntöget romba
TTITLE9=Honeymoon Rag
TTITLE10=A szerelmi ABC
TTITLE11=Párizsi rag
TTITLE12=Minden kislány tizenhaton túl
TTITLE13=Sweet Substitute
TTITLE14=Sedalia Stomp
TTITLE15=Dinah
EXTD=YEAR: 2005
EXTT0=
EXTT1=
EXTT2=
EXTT3=
EXTT4=
EXTT5=
EXTT6=
EXTT7=
EXTT8=
EXTT9=
EXTT10=
EXTT11=
EXTT12=
EXTT13=
EXTT14=
EXTT15=
PLAYORDER=
